Jessen-Cicero12.ufo
<glyph name="exclam" format="1">
  <advance width="200"/>
  <unicode hex="0021"/>
  <outline>
    <contour>
      <point x="57" y="632" type="line"/>
      <point x="82" y="284" type="line"/>
      <point x="167" y="240" type="line"/>
      <point x="170" y="242" type="line"/>
      <point x="180" y="676" type="line"/>
      <point x="179" y="677" type="line"/>
    </contour>
    <component base="period" xOffset="10"/>
  </outline>
</glyph>
<glyph name="comma" format="1">
  <advance width="192"/>
  <unicode hex="002C"/>
  <outline>
    <contour>
      <point x="65" y="-72" type="curve"/>
      <point x="20" y="-60" type="line"/>
      <point x="87" y="184" type="line"/>
      <point x="182" y="169" type="line"/>
      <point x="150" y="89"/>
      <point x="108" y="8"/>
    </contour>
  </outline>
</glyph>
<glyph name="hyphen" format="1">
  <advance width="311"/>
  <unicode hex="002D"/>
  <outline>
    <contour>
      <point x="20" y="341" type="line"/>
      <point x="264" y="357" type="line"/>
      <point x="287" y="305" type="line"/>
      <point x="283" y="298" type="line"/>
      <point x="20" y="290" type="line"/>
    </contour>
    <contour>
      <point x="24" y="221" type="line"/>
      <point x="268" y="237" type="line"/>
      <point x="291" y="185" type="line"/>
      <point x="287" y="178" type="line"/>
      <point x="24" y="170" type="line"/>
    </contour>
  </outline>
</glyph>
<glyph name="period" format="1">
  <advance width="178"/>
  <unicode hex="002E"/>
  <outline>
    <contour>
      <point x="10" y="72" type="curve"/>
      <point x="10" y="76" type="line"/>
      <point x="28" y="104"/>
      <point x="58" y="132"/>
      <point x="87" y="155" type="curve"/>
      <point x="93" y="155" type="line"/>
      <point x="110" y="142"/>
      <point x="150" y="98"/>
      <point x="168" y="75" type="curve"/>
      <point x="168" y="71" type="line"/>
      <point x="149" y="42"/>
      <point x="115" y="10"/>
      <point x="85" y="-10" type="curve"/>
      <point x="81" y="-10" type="line"/>
      <point x="57" y="14"/>
      <point x="28" y="46"/>
    </contour>
  </outline>
</glyph>
<glyph name="zero" format="1">
  <advance width="484"/>
  <unicode hex="0030"/>
  <outline>
    <contour>
      <point x="202" y="510" type="curve"/>
      <point x="232" y="600" type="line"/>
      <point x="152" y="600"/>
      <point x="20" y="454"/>
      <point x="20" y="268" type="curve"/>
      <point x="20" y="108"/>
      <point x="122" y="-10"/>
      <point x="252" y="-10" type="curve"/>
      <point x="280" y="90" type="line"/>
      <point x="170" y="90"/>
      <point x="110" y="218"/>
      <point x="110" y="328" type="curve"/>
      <point x="110" y="448"/>
      <point x="172" y="510"/>
    </contour>
    <contour>
      <point x="280" y="90" type="curve"/>
      <point x="252" y="-10" type="line"/>
      <point x="322" y="-10"/>
      <point x="464" y="136"/>
      <point x="464" y="322" type="curve"/>
      <point x="464" y="482"/>
      <point x="362" y="600"/>
      <point x="232" y="600" type="curve"/>
      <point x="202" y="510" type="line"/>
      <point x="312" y="510"/>
      <point x="374" y="372"/>
      <point x="374" y="272" type="curve"/>
      <point x="374" y="142"/>
      <point x="310" y="90"/>
    </contour>
  </outline>
</glyph>
<glyph name="one" format="1">
  <advance width="333"/>
  <unicode hex="0031"/>
  <outline>
    <contour>
      <point x="172" y="469" type="curve"/>
      <point x="24" y="417" type="line"/>
      <point x="15" y="426" type="line"/>
      <point x="30" y="510" type="line"/>
      <point x="109" y="520"/>
      <point x="211" y="564"/>
      <point x="259" y="610" type="curve"/>
      <point x="285" y="598" type="line"/>
      <point x="263" y="393"/>
      <point x="268" y="194"/>
      <point x="290" y="0" type="curve"/>
      <point x="134" y="0" type="line"/>
      <point x="154" y="144"/>
      <point x="172" y="363"/>
    </contour>
  </outline>
</glyph>
<glyph name="two" format="1">
  <advance width="449"/>
  <unicode hex="0032"/>
  <outline>
    <contour>
      <point x="388" y="-10" type="curve"/>
      <point x="429" y="104" type="line"/>
      <point x="423" y="117" type="line"/>
      <point x="148" y="96" type="line"/>
      <point x="285" y="259" type="line" smooth="yes"/>
      <point x="364" y="353"/>
      <point x="397" y="393"/>
      <point x="397" y="442" type="curve"/>
      <point x="397" y="536"/>
      <point x="321" y="600"/>
      <point x="231" y="600" type="curve"/>
      <point x="141" y="600"/>
      <point x="44" y="527"/>
      <point x="44" y="427" type="curve"/>
      <point x="44" y="310"/>
      <point x="151" y="257"/>
      <point x="266" y="286" type="curve"/>
      <point x="245" y="291" type="line"/>
      <point x="176" y="203"/>
      <point x="104" y="124"/>
      <point x="25" y="46" type="curve"/>
      <point x="36" y="0" type="line"/>
      <point x="143" y="-1"/>
      <point x="263" y="-2"/>
    </contour>
    <contour>
      <point x="301" y="420" type="curve"/>
      <point x="301" y="370"/>
      <point x="261" y="330"/>
      <point x="211" y="330" type="curve"/>
      <point x="151" y="330"/>
      <point x="119" y="370"/>
      <point x="119" y="420" type="curve"/>
      <point x="119" y="480"/>
      <point x="161" y="510"/>
      <point x="215" y="510" type="curve"/>
      <point x="264" y="510"/>
      <point x="301" y="470"/>
    </contour>
  </outline>
</glyph>
<glyph name="three" format="1">
  <advance width="421"/>
  <unicode hex="0033"/>
  <outline>
    <contour>
      <point x="265" y="308" type="curve"/>
      <point x="225" y="288" type="line"/>
      <point x="269" y="300"/>
      <point x="388" y="361"/>
      <point x="388" y="463" type="curve"/>
      <point x="388" y="553"/>
      <point x="309" y="600"/>
      <point x="229" y="600" type="curve"/>
      <point x="141" y="600"/>
      <point x="69" y="557"/>
      <point x="37" y="472" type="curve"/>
      <point x="104" y="453" type="line"/>
      <point x="122" y="487"/>
      <point x="161" y="510"/>
      <point x="205" y="510" type="curve"/>
      <point x="255" y="510"/>
      <point x="288" y="480"/>
      <point x="288" y="430" type="curve"/>
      <point x="288" y="358"/>
      <point x="231" y="323"/>
      <point x="156" y="323" type="curve"/>
      <point x="125" y="323" type="line"/>
      <point x="105" y="291" type="line"/>
      <point x="233" y="257"/>
      <point x="290" y="220"/>
      <point x="290" y="145" type="curve"/>
      <point x="290" y="100"/>
      <point x="262" y="70"/>
      <point x="218" y="70" type="curve"/>
      <point x="159" y="70"/>
      <point x="116" y="115"/>
      <point x="101" y="143" type="curve"/>
      <point x="14" y="124" type="line"/>
      <point x="10" y="113" type="line"/>
      <point x="33" y="70"/>
      <point x="83" y="-10"/>
      <point x="174" y="-10" type="curve"/>
      <point x="265" y="-10"/>
      <point x="401" y="81"/>
      <point x="401" y="168" type="curve"/>
      <point x="401" y="239"/>
      <point x="341" y="278"/>
    </contour>
  </outline>
</glyph>
<glyph name="four" format="1">
  <advance width="581"/>
  <unicode hex="0034"/>
  <outline>
    <contour>
      <point x="430" y="0" type="curve"/>
      <point x="284" y="0" type="line"/>
      <point x="311" y="207"/>
      <point x="315" y="420"/>
      <point x="300" y="584" type="curve"/>
      <point x="425" y="598" type="line"/>
      <point x="403" y="393"/>
      <point x="408" y="194"/>
    </contour>
    <contour>
      <point x="45" y="185" type="curve"/>
      <point x="16" y="211" type="line"/>
      <point x="300" y="584" type="line"/>
      <point x="333" y="545" type="line"/>
      <point x="116" y="268" type="line"/>
      <point x="323" y="231" type="line"/>
      <point x="367" y="253" type="line"/>
      <point x="548" y="253" type="line"/>
      <point x="557" y="168" type="line"/>
      <point x="549" y="159" type="line"/>
      <point x="398" y="175"/>
      <point x="227" y="185"/>
    </contour>
  </outline>
</glyph>
<glyph name="five" format="1">
  <advance width="397"/>
  <unicode hex="0035"/>
  <outline>
    <contour>
      <point x="127" y="542" type="curve"/>
      <point x="105" y="510" type="line"/>
      <point x="355" y="510" type="line"/>
      <point x="355" y="580" type="line"/>
      <point x="255" y="574"/>
      <point x="159" y="582"/>
      <point x="60" y="586" type="curve"/>
      <point x="55" y="581" type="line"/>
      <point x="62" y="469"/>
      <point x="61" y="355"/>
      <point x="60" y="243" type="curve"/>
      <point x="78" y="240" type="line"/>
      <point x="93" y="259"/>
      <point x="115" y="274"/>
      <point x="143" y="274" type="curve"/>
      <point x="212" y="274"/>
      <point x="247" y="225"/>
      <point x="247" y="166" type="curve"/>
      <point x="247" y="111"/>
      <point x="217" y="62"/>
      <point x="160" y="62" type="curve"/>
      <point x="110" y="62"/>
      <point x="71" y="96"/>
      <point x="56" y="148" type="curve"/>
      <point x="40" y="148" type="line"/>
      <point x="40" y="42" type="line"/>
      <point x="64" y="17"/>
      <point x="98" y="-10"/>
      <point x="171" y="-10" type="curve"/>
      <point x="281" y="-10"/>
      <point x="357" y="70"/>
      <point x="357" y="180" type="curve"/>
      <point x="357" y="275"/>
      <point x="284" y="354"/>
      <point x="189" y="354" type="curve"/>
      <point x="149" y="354"/>
      <point x="123" y="344"/>
      <point x="96" y="324" type="curve"/>
      <point x="127" y="304" type="line"/>
      <point x="120" y="384"/>
      <point x="125" y="462"/>
    </contour>
  </outline>
</glyph>
<glyph name="six" format="1">
  <advance width="460"/>
  <unicode hex="0036"/>
  <outline>
    <contour>
      <point x="219" y="-10" type="curve"/>
      <point x="324" y="-10"/>
      <point x="430" y="72"/>
      <point x="430" y="201" type="curve"/>
      <point x="430" y="291"/>
      <point x="351" y="372"/>
      <point x="255" y="372" type="curve"/>
      <point x="219" y="372"/>
      <point x="193" y="363"/>
      <point x="172" y="354" type="curve"/>
      <point x="207" y="416"/>
      <point x="272" y="520"/>
      <point x="319" y="588" type="curve"/>
      <point x="318" y="590" type="line"/>
      <point x="221" y="590" type="line"/>
      <point x="101" y="366" type="line" smooth="yes"/>
      <point x="52" y="275"/>
      <point x="30" y="228"/>
      <point x="30" y="171" type="curve"/>
      <point x="30" y="71"/>
      <point x="89" y="-10"/>
    </contour>
    <contour>
      <point x="235" y="322" type="curve"/>
      <point x="305" y="322"/>
      <point x="350" y="271"/>
      <point x="350" y="201" type="curve"/>
      <point x="350" y="136"/>
      <point x="295" y="90"/>
      <point x="235" y="90" type="curve"/>
      <point x="170" y="90"/>
      <point x="120" y="136"/>
      <point x="120" y="201" type="curve"/>
      <point x="120" y="271"/>
      <point x="165" y="322"/>
    </contour>
  </outline>
</glyph>
<glyph name="seven" format="1">
  <advance width="426"/>
  <unicode hex="0037"/>
  <outline>
    <contour>
      <point x="14" y="457" type="curve"/>
      <point x="0" y="477" type="line"/>
      <point x="63" y="590" type="line"/>
      <point x="185" y="582"/>
      <point x="344" y="577"/>
      <point x="408" y="585" type="curve"/>
      <point x="416" y="571" type="line"/>
      <point x="358" y="465"/>
      <point x="274" y="225"/>
      <point x="273" y="0" type="curve"/>
      <point x="165" y="0" type="line"/>
      <point x="192" y="143"/>
      <point x="254" y="328"/>
      <point x="319" y="468" type="curve"/>
      <point x="239" y="478"/>
      <point x="113" y="471"/>
    </contour>
  </outline>
</glyph>
<glyph name="eight" format="1">
  <advance width="420"/>
  <unicode hex="0038"/>
  <outline>
    <contour>
      <point x="224" y="305" type="curve"/>
      <point x="110" y="305"/>
      <point x="40" y="226"/>
      <point x="40" y="141" type="curve"/>
      <point x="40" y="62"/>
      <point x="102" y="-10"/>
      <point x="217" y="-10" type="curve"/>
      <point x="299" y="-10"/>
      <point x="397" y="62"/>
      <point x="397" y="151" type="curve"/>
      <point x="397" y="241"/>
      <point x="318" y="305"/>
    </contour>
    <contour>
      <point x="199" y="254" type="curve"/>
      <point x="259" y="254"/>
      <point x="302" y="208"/>
      <point x="302" y="148" type="curve"/>
      <point x="302" y="78"/>
      <point x="257" y="43"/>
      <point x="199" y="43" type="curve"/>
      <point x="132" y="43"/>
      <point x="93" y="93"/>
      <point x="93" y="148" type="curve"/>
      <point x="93" y="213"/>
      <point x="142" y="254"/>
    </contour>
    <contour>
      <point x="197" y="278" type="curve"/>
      <point x="310" y="278"/>
      <point x="394" y="354"/>
      <point x="394" y="449" type="curve"/>
      <point x="394" y="518"/>
      <point x="338" y="593"/>
      <point x="221" y="593" type="curve"/>
      <point x="112" y="593"/>
      <point x="30" y="528"/>
      <point x="30" y="429" type="curve"/>
      <point x="30" y="349"/>
      <point x="112" y="278"/>
    </contour>
    <contour>
      <point x="235" y="327" type="curve"/>
      <point x="147" y="327"/>
      <point x="125" y="392"/>
      <point x="125" y="437" type="curve"/>
      <point x="125" y="491"/>
      <point x="162" y="543"/>
      <point x="235" y="543" type="curve"/>
      <point x="298" y="543"/>
      <point x="331" y="496"/>
      <point x="331" y="437" type="curve"/>
      <point x="331" y="372"/>
      <point x="293" y="327"/>
    </contour>
  </outline>
</glyph>
<glyph name="nine" format="1">
  <advance width="420"/>
  <unicode hex="0039"/>
  <outline>
    <contour>
      <point x="222" y="600" type="curve"/>
      <point x="117" y="600"/>
      <point x="27" y="512"/>
      <point x="27" y="393" type="curve"/>
      <point x="27" y="293"/>
      <point x="90" y="211"/>
      <point x="200" y="211" type="curve"/>
      <point x="219" y="211"/>
      <point x="252" y="217"/>
      <point x="277" y="234" type="curve"/>
      <point x="242" y="169"/>
      <point x="179" y="70"/>
      <point x="132" y="2" type="curve"/>
      <point x="133" y="0" type="line"/>
      <point x="230" y="0" type="line"/>
      <point x="349" y="234" type="line" smooth="yes"/>
      <point x="379" y="293"/>
      <point x="407" y="356"/>
      <point x="407" y="409" type="curve"/>
      <point x="407" y="529"/>
      <point x="322" y="600"/>
    </contour>
    <contour>
      <point x="223" y="265" type="curve"/>
      <point x="153" y="265"/>
      <point x="101" y="313"/>
      <point x="101" y="393" type="curve"/>
      <point x="101" y="463"/>
      <point x="150" y="510"/>
      <point x="220" y="510" type="curve"/>
      <point x="290" y="510"/>
      <point x="345" y="458"/>
      <point x="345" y="383" type="curve"/>
      <point x="345" y="328"/>
      <point x="303" y="265"/>
    </contour>
  </outline>
</glyph>
<glyph name="semicolon" format="1">
  <advance width="192"/>
  <unicode hex="003B"/>
  <outline>
    <contour>
      <point x="186" y="157" type="line"/>
      <point x="58" y="-53" type="line"/>
      <point x="30" y="-43" type="line"/>
      <point x="130" y="177" type="line"/>
    </contour>
    <contour>
      <point x="34" y="302" type="curve"/>
      <point x="34" y="306" type="line"/>
      <point x="57" y="327"/>
      <point x="90" y="359"/>
      <point x="117" y="385" type="curve"/>
      <point x="123" y="385" type="line"/>
      <point x="140" y="369"/>
      <point x="174" y="328"/>
      <point x="192" y="305" type="curve"/>
      <point x="192" y="301" type="line"/>
      <point x="170" y="274"/>
      <point x="136" y="242"/>
      <point x="109" y="220" type="curve"/>
      <point x="105" y="220" type="line"/>
      <point x="84" y="248"/>
      <point x="55" y="280"/>
    </contour>
  </outline>
</glyph>
<glyph name="question" format="1">
  <advance width="269"/>
  <unicode hex="003F"/>
  <outline>
    <contour>
      <point x="203" y="225" type="curve"/>
      <point x="126" y="170" type="line"/>
      <point x="123" y="170" type="line"/>
      <point x="79" y="202"/>
      <point x="36" y="247"/>
      <point x="36" y="314" type="curve"/>
      <point x="36" y="391"/>
      <point x="131" y="467"/>
      <point x="131" y="536" type="curve"/>
      <point x="131" y="607"/>
      <point x="64" y="659"/>
      <point x="20" y="691" type="curve"/>
      <point x="20" y="699" type="line"/>
      <point x="139" y="750" type="line"/>
      <point x="188" y="706"/>
      <point x="249" y="636"/>
      <point x="249" y="573" type="curve"/>
      <point x="249" y="490"/>
      <point x="130" y="452"/>
      <point x="130" y="352" type="curve"/>
      <point x="130" y="299"/>
      <point x="169" y="251"/>
    </contour>
    <component base="period" xOffset="34"/>
  </outline>
</glyph>
<glyph name="A" format="1">
  <advance width="757"/>
  <unicode hex="0041"/>
  <outline>
    <contour>
      <point x="518" y="244" type="curve"/>
      <point x="379" y="580" type="line"/>
      <point x="370" y="580" type="line"/>
      <point x="229" y="244" type="line"/>
      <point x="315" y="239"/>
      <point x="412" y="239"/>
    </contour>
    <contour>
      <point x="722" y="0" type="line"/>
      <point x="599" y="0" type="line"/>
      <point x="541" y="156" type="line"/>
      <point x="421" y="151"/>
      <point x="311" y="148"/>
      <point x="211" y="151" type="curve"/>
      <point x="155" y="0" type="line"/>
      <point x="38" y="0" type="line"/>
      <point x="35" y="9" type="line"/>
      <point x="294" y="587" type="line"/>
      <point x="203" y="587"/>
      <point x="114" y="583"/>
      <point x="24" y="568" type="curve"/>
      <point x="15" y="582" type="line"/>
      <point x="52" y="679" type="line"/>
      <point x="249" y="666"/>
      <point x="587" y="676"/>
      <point x="733" y="710" type="curve"/>
      <point x="742" y="696" type="line"/>
      <point x="664" y="587" type="line"/>
      <point x="455" y="587" type="line"/>
      <point x="724" y="9" type="line"/>
    </contour>
  </outline>
</glyph>
<glyph name="B" format="1">
  <advance width="510"/>
  <unicode hex="0042"/>
  <outline>
    <contour>
      <point x="58" y="0" type="curve"/>
      <point x="164" y="0" type="line" smooth="yes"/>
      <point x="374" y="0"/>
      <point x="480" y="85"/>
      <point x="480" y="195" type="curve"/>
      <point x="480" y="314"/>
      <point x="342" y="354"/>
      <point x="263" y="371" type="curve"/>
      <point x="272" y="354" type="line"/>
      <point x="364" y="375"/>
      <point x="474" y="448"/>
      <point x="474" y="556" type="curve"/>
      <point x="474" y="639"/>
      <point x="394" y="710"/>
      <point x="274" y="710" type="curve"/>
      <point x="199" y="710"/>
      <point x="140" y="700"/>
      <point x="48" y="700" type="curve"/>
      <point x="45" y="686" type="line"/>
      <point x="71" y="587"/>
      <point x="75" y="230"/>
    </contour>
    <contour>
      <point x="360" y="185" type="curve"/>
      <point x="360" y="105"/>
      <point x="298" y="60"/>
      <point x="208" y="60" type="curve"/>
      <point x="183" y="60" type="line"/>
      <point x="183" y="338" type="line"/>
      <point x="202" y="337" type="line" smooth="yes"/>
      <point x="279" y="333"/>
      <point x="360" y="275"/>
    </contour>
    <contour>
      <point x="190" y="386" type="curve"/>
      <point x="183" y="385" type="line"/>
      <point x="183" y="645" type="line"/>
      <point x="197" y="648"/>
      <point x="213" y="650"/>
      <point x="237" y="650" type="curve"/>
      <point x="307" y="650"/>
      <point x="354" y="616"/>
      <point x="354" y="546" type="curve"/>
      <point x="354" y="466"/>
      <point x="290" y="400"/>
    </contour>
  </outline>
</glyph>
<glyph name="C" format="1">
  <advance width="634"/>
  <unicode hex="0043"/>
  <outline>
    <contour>
      <point x="556" y="579" type="curve"/>
      <point x="579" y="593" type="line"/>
      <point x="526" y="700" type="line"/>
      <point x="498" y="707"/>
      <point x="464" y="710"/>
      <point x="429" y="710" type="curve"/>
      <point x="219" y="710"/>
      <point x="40" y="512"/>
      <point x="40" y="302" type="curve"/>
      <point x="40" y="92"/>
      <point x="206" y="-27"/>
      <point x="477" y="-6" type="curve"/>
      <point x="531" y="25"/>
      <point x="579" y="67"/>
      <point x="624" y="107" type="curve"/>
      <point x="624" y="181" type="line"/>
      <point x="608" y="187" type="line"/>
      <point x="572" y="155"/>
      <point x="493" y="90"/>
      <point x="400" y="90" type="curve"/>
      <point x="260" y="90"/>
      <point x="155" y="207"/>
      <point x="155" y="347" type="curve"/>
      <point x="155" y="507"/>
      <point x="254" y="610"/>
      <point x="414" y="610" type="curve"/>
      <point x="464" y="610"/>
      <point x="512" y="603"/>
    </contour>
  </outline>
</glyph>
<glyph name="D" format="1">
  <advance width="683"/>
  <unicode hex="0044"/>
  <outline>
    <contour>
      <point x="89" y="45" type="line"/>
      <point x="89" y="647" type="line"/>
      <point x="44" y="660" type="line"/>
      <point x="44" y="700" type="line"/>
      <point x="97" y="707"/>
      <point x="167" y="710"/>
      <point x="264" y="710" type="curve"/>
      <point x="502" y="710"/>
      <point x="653" y="562"/>
      <point x="653" y="354" type="curve"/>
      <point x="653" y="130"/>
      <point x="451" y="-4"/>
      <point x="225" y="-4" type="curve"/>
      <point x="161" y="-4"/>
      <point x="102" y="-3"/>
      <point x="48" y="-1" type="curve"/>
      <point x="48" y="39" type="line"/>
    </contour>
    <contour>
      <point x="210" y="665" type="curve"/>
      <point x="205" y="643"/>
      <point x="204" y="489"/>
      <point x="204" y="351" type="curve"/>
      <point x="204" y="225"/>
      <point x="205" y="117"/>
      <point x="209" y="54" type="curve"/>
      <point x="270" y="56" type="line" smooth="yes"/>
      <point x="417" y="61"/>
      <point x="533" y="185"/>
      <point x="533" y="354" type="curve"/>
      <point x="533" y="502"/>
      <point x="450" y="665"/>
    </contour>
  </outline>
</glyph>
<glyph name="E" format="1">
  <advance width="651"/>
  <unicode hex="0045"/>
  <outline>
    <contour>
      <point x="160" y="360" type="curve"/>
      <point x="160" y="570"/>
      <point x="262" y="650"/>
      <point x="402" y="650" type="curve"/>
      <point x="509" y="650"/>
      <point x="572" y="578"/>
      <point x="593" y="536" type="curve"/>
      <point x="628" y="536" type="line"/>
      <point x="628" y="683" type="line"/>
      <point x="568" y="697"/>
      <point x="515" y="710"/>
      <point x="422" y="710" type="curve"/>
      <point x="212" y="710"/>
      <point x="40" y="570"/>
      <point x="40" y="350" type="curve"/>
      <point x="40" y="130"/>
      <point x="165" y="-10"/>
      <point x="405" y="-10" type="curve"/>
      <point x="503" y="-10"/>
      <point x="592" y="25"/>
      <point x="631" y="44" type="curve"/>
      <point x="631" y="194" type="line"/>
      <point x="596" y="194" type="line"/>
      <point x="577" y="126"/>
      <point x="512" y="60"/>
      <point x="405" y="60" type="curve"/>
      <point x="235" y="60"/>
      <point x="160" y="190"/>
    </contour>
    <contour>
      <point x="504" y="395" type="curve"/>
      <point x="130" y="395" type="line"/>
      <point x="130" y="305" type="line"/>
      <point x="504" y="305" type="line" smooth="yes"/>
      <point x="549" y="305"/>
      <point x="571" y="285"/>
      <point x="593" y="268" type="curve"/>
      <point x="603" y="273" type="line"/>
      <point x="603" y="418" type="line"/>
      <point x="593" y="422" type="line"/>
      <point x="575" y="411"/>
      <point x="549" y="395"/>
    </contour>
  </outline>
</glyph>
<glyph name="F" format="1">
  <advance width="561"/>
  <unicode hex="0046"/>
  <outline>
    <contour>
      <point x="253" y="430" type="curve"/>
      <point x="315" y="427"/>
      <point x="416" y="427"/>
      <point x="496" y="433" type="curve"/>
      <point x="496" y="342" type="line"/>
      <point x="434" y="338"/>
      <point x="322" y="340"/>
      <point x="250" y="345" type="curve"/>
      <point x="252" y="231"/>
      <point x="257" y="114"/>
      <point x="267" y="0" type="curve"/>
      <point x="121" y="0" type="line"/>
      <point x="141" y="352" type="line"/>
      <point x="90" y="354"/>
      <point x="60" y="353"/>
      <point x="32" y="343" type="curve"/>
      <point x="20" y="352" type="line"/>
      <point x="44" y="447" type="line"/>
      <point x="76" y="450"/>
      <point x="111" y="446"/>
      <point x="143" y="440" type="curve"/>
      <point x="151" y="569" type="line"/>
      <point x="179" y="628"/>
      <point x="286" y="710"/>
      <point x="426" y="710" type="curve"/>
      <point x="485" y="710"/>
      <point x="537" y="689"/>
      <point x="561" y="672" type="curve"/>
      <point x="561" y="571" type="line"/>
      <point x="526" y="571" type="line"/>
      <point x="505" y="618"/>
      <point x="457" y="650"/>
      <point x="397" y="650" type="curve"/>
      <point x="321" y="650"/>
      <point x="269" y="596"/>
      <point x="253" y="549" type="curve"/>
      <point x="251" y="542"/>
      <point x="249" y="491"/>
    </contour>
  </outline>
</glyph>
<glyph name="G" format="1">
  <advance width="711"/>
  <unicode hex="0047"/>
  <outline>
    <contour>
      <point x="418" y="650" type="curve"/>
      <point x="508" y="650"/>
      <point x="592" y="584"/>
      <point x="628" y="536" type="curve"/>
      <point x="663" y="536" type="line"/>
      <point x="663" y="683" type="line"/>
      <point x="591" y="704"/>
      <point x="531" y="710"/>
      <point x="454" y="710" type="curve"/>
      <point x="234" y="710"/>
      <point x="40" y="564"/>
      <point x="40" y="344" type="curve"/>
      <point x="40" y="134"/>
      <point x="205" y="0"/>
      <point x="431" y="-10" type="curve"/>
      <point x="508" y="23"/>
      <point x="587" y="52"/>
      <point x="666" y="79" type="curve"/>
      <point x="666" y="300" type="line"/>
      <point x="551" y="300" type="line"/>
      <point x="547" y="286" type="line"/>
      <point x="554" y="229"/>
      <point x="554" y="151"/>
      <point x="547" y="90" type="curve"/>
      <point x="394" y="73"/>
      <point x="160" y="154"/>
      <point x="160" y="374" type="curve"/>
      <point x="160" y="534"/>
      <point x="258" y="650"/>
    </contour>
  </outline>
</glyph>
<glyph name="H" format="1">
  <advance width="655"/>
  <unicode hex="0048"/>
  <outline>
    <contour>
      <point x="191" y="10" type="curve"/>
      <point x="188" y="0" type="line"/>
      <point x="45" y="0" type="line"/>
      <point x="59" y="233"/>
      <point x="59" y="462"/>
      <point x="45" y="700" type="curve"/>
      <point x="183" y="700" type="line"/>
      <point x="186" y="690" type="line"/>
      <point x="162" y="593"/>
      <point x="161" y="111"/>
    </contour>
    <contour>
      <point x="610" y="0" type="curve"/>
      <point x="467" y="0" type="line"/>
      <point x="464" y="10" type="line"/>
      <point x="494" y="111"/>
      <point x="492" y="593"/>
      <point x="469" y="690" type="curve"/>
      <point x="472" y="700" type="line"/>
      <point x="610" y="700" type="line"/>
      <point x="595" y="467"/>
      <point x="595" y="238"/>
    </contour>
    <contour>
      <point x="535" y="322" type="line"/>
      <point x="123" y="322" type="line"/>
      <point x="123" y="397" type="line"/>
      <point x="535" y="397" type="line"/>
    </contour>
  </outline>
</glyph>
<glyph name="I" format="1">
  <advance width="238"/>
  <unicode hex="0049"/>
  <outline>
    <contour>
      <point x="193" y="3" type="curve"/>
      <point x="192" y="0" type="line"/>
      <point x="46" y="0" type="line"/>
      <point x="45" y="3" type="line"/>
      <point x="63" y="104"/>
      <point x="72" y="600"/>
      <point x="47" y="697" type="curve"/>
      <point x="48" y="700" type="line"/>
      <point x="187" y="700" type="line"/>
      <point x="188" y="697" type="line"/>
      <point x="164" y="600"/>
      <point x="165" y="104"/>
    </contour>
  </outline>
</glyph>
<glyph name="K" format="1">
  <advance width="608"/>
  <unicode hex="004B"/>
  <outline>
    <contour>
      <point x="441" y="-10" type="line"/>
      <point x="181" y="301" type="line"/>
      <point x="181" y="315" type="line"/>
      <point x="478" y="710" type="line"/>
      <point x="577" y="629" type="line"/>
      <point x="465" y="539"/>
      <point x="361" y="440"/>
      <point x="265" y="334" type="curve"/>
      <point x="382" y="231"/>
      <point x="535" y="95"/>
      <point x="588" y="80" type="curve"/>
      <point x="588" y="52" type="line"/>
    </contour>
    <contour>
      <point x="189" y="-10" type="line"/>
      <point x="50" y="15" type="line"/>
      <point x="49" y="19" type="line"/>
      <point x="79" y="120"/>
      <point x="83" y="605"/>
      <point x="45" y="705" type="curve"/>
      <point x="47" y="710" type="line"/>
      <point x="196" y="700" type="line"/>
      <point x="181" y="470"/>
      <point x="179" y="229"/>
      <point x="193" y="-6" type="curve"/>
    </contour>
  </outline>
</glyph>
<glyph name="L" format="1">
  <advance width="501"/>
  <unicode hex="004C"/>
  <outline>
    <contour>
      <point x="483" y="137" type="line"/>
      <point x="440" y="0" type="line"/>
      <point x="45" y="0" type="line"/>
      <point x="59" y="233"/>
      <point x="59" y="462"/>
      <point x="45" y="700" type="curve"/>
      <point x="183" y="700" type="line"/>
      <point x="186" y="690" type="line"/>
      <point x="173" y="609"/>
      <point x="162" y="257"/>
      <point x="175" y="86" type="curve"/>
      <point x="270" y="86" type="line" smooth="yes"/>
      <point x="385" y="86"/>
      <point x="424" y="117"/>
      <point x="464" y="147" type="curve"/>
    </contour>
  </outline>
</glyph>
<glyph name="M" format="1">
  <advance width="853"/>
  <unicode hex="004D"/>
  <outline>
    <contour>
      <point x="848" y="10" type="curve"/>
      <point x="839" y="0" type="line"/>
      <point x="711" y="0" type="line"/>
      <point x="692" y="143"/>
      <point x="674" y="305"/>
      <point x="667" y="448" type="curve"/>
      <point x="446" y="-5" type="line"/>
      <point x="401" y="-5" type="line"/>
      <point x="188" y="448" type="line"/>
      <point x="112" y="0" type="line"/>
      <point x="11" y="0" type="line"/>
      <point x="5" y="10" type="line"/>
      <point x="49" y="140"/>
      <point x="105" y="381"/>
      <point x="127" y="554" type="curve"/>
      <point x="77" y="680" type="line"/>
      <point x="77" y="700" type="line"/>
      <point x="211" y="700" type="line"/>
      <point x="286" y="523"/>
      <point x="369" y="346"/>
      <point x="466" y="183" type="curve"/>
      <point x="558" y="353"/>
      <point x="698" y="655"/>
      <point x="708" y="710" type="curve"/>
      <point x="760" y="710" type="line"/>
      <point x="754" y="555"/>
      <point x="798" y="184"/>
    </contour>
  </outline>
</glyph>
<glyph name="N" format="1">
  <advance width="706"/>
  <unicode hex="004E"/>
  <outline>
    <contour>
      <point x="35" y="700" type="line"/>
      <point x="35" y="670" type="line"/>
      <point x="82" y="607" type="line"/>
      <point x="86" y="405"/>
      <point x="83" y="202"/>
      <point x="67" y="0" type="curve"/>
      <point x="180" y="0" type="line"/>
      <point x="144" y="547" type="line"/>
      <point x="284" y="380"/>
      <point x="552" y="75"/>
      <point x="583" y="33" type="curve"/>
      <point x="590" y="23"/>
      <point x="595" y="10"/>
      <point x="597" y="0" type="curve"/>
      <point x="652" y="0" type="line"/>
      <point x="643" y="202"/>
      <point x="642" y="498"/>
      <point x="661" y="700" type="curve"/>
      <point x="562" y="700" type="line"/>
      <point x="572" y="485"/>
      <point x="573" y="467"/>
      <point x="572" y="228" type="curve"/>
      <point x="434" y="383"/>
      <point x="301" y="537"/>
      <point x="173" y="700" type="curve"/>
    </contour>
  </outline>
</glyph>
<glyph name="O" format="1">
  <advance width="820"/>
  <unicode hex="004F"/>
  <outline>
    <contour>
      <point x="421" y="719" type="curve"/>
      <point x="201" y="719"/>
      <point x="50" y="530"/>
      <point x="50" y="320" type="curve"/>
      <point x="50" y="150"/>
      <point x="170" y="-18"/>
      <point x="370" y="-18" type="curve"/>
      <point x="610" y="-18"/>
      <point x="760" y="190"/>
      <point x="760" y="380" type="curve"/>
      <point x="760" y="580"/>
      <point x="621" y="719"/>
    </contour>
    <contour>
      <point x="397" y="91" type="curve"/>
      <point x="227" y="91"/>
      <point x="110" y="200"/>
      <point x="110" y="340" type="curve"/>
      <point x="110" y="500"/>
      <point x="231" y="612"/>
      <point x="401" y="612" type="curve"/>
      <point x="570" y="612"/>
      <point x="700" y="490"/>
      <point x="700" y="350" type="curve"/>
      <point x="700" y="192"/>
      <point x="577" y="91"/>
    </contour>
  </outline>
</glyph>
<glyph name="P" format="1">
  <advance width="537"/>
  <unicode hex="0050"/>
  <outline>
    <contour>
      <point x="517" y="504" type="curve"/>
      <point x="517" y="646"/>
      <point x="385" y="710"/>
      <point x="240" y="710" type="curve"/>
      <point x="182" y="710"/>
      <point x="116" y="701"/>
      <point x="48" y="689" type="curve"/>
      <point x="63" y="540"/>
      <point x="63" y="221"/>
      <point x="45" y="3" type="curve"/>
      <point x="46" y="0" type="line"/>
      <point x="188" y="0" type="line"/>
      <point x="189" y="3" type="line"/>
      <point x="177" y="94"/>
      <point x="174" y="176"/>
      <point x="171" y="267" type="curve"/>
      <point x="352" y="273"/>
      <point x="517" y="355"/>
    </contour>
    <contour>
      <point x="171" y="327" type="curve"/>
      <point x="163" y="650" type="line"/>
      <point x="341" y="666"/>
      <point x="397" y="577"/>
      <point x="397" y="490" type="curve"/>
      <point x="397" y="368"/>
      <point x="290" y="327"/>
    </contour>
  </outline>
</glyph>
<glyph name="Q" format="1">
  <advance width="810"/>
  <unicode hex="0051"/>
  <outline>
    <contour>
      <point x="667" y="181" type="line"/>
      <point x="592" y="106" type="line"/>
      <point x="702" y="-8" type="line"/>
      <point x="782" y="-10" type="line"/>
      <point x="785" y="-5" type="line"/>
    </contour>
    <component base="O"/>
  </outline>
</glyph>
<glyph name="R" format="1">
  <advance width="520"/>
  <unicode hex="0052"/>
  <outline>
    <contour>
      <point x="477" y="544" type="curve"/>
      <point x="477" y="656"/>
      <point x="355" y="710"/>
      <point x="240" y="710" type="curve"/>
      <point x="182" y="710"/>
      <point x="116" y="702"/>
      <point x="48" y="700" type="curve"/>
      <point x="63" y="541"/>
      <point x="63" y="221"/>
      <point x="45" y="3" type="curve"/>
      <point x="46" y="0" type="line"/>
      <point x="188" y="0" type="line"/>
      <point x="189" y="3" type="line"/>
      <point x="177" y="94"/>
      <point x="174" y="226"/>
      <point x="171" y="317" type="curve"/>
      <point x="322" y="324"/>
      <point x="477" y="395"/>
    </contour>
    <contour>
      <point x="171" y="377" type="curve"/>
      <point x="163" y="650" type="line"/>
      <point x="301" y="665"/>
      <point x="357" y="607"/>
      <point x="357" y="530" type="curve"/>
      <point x="357" y="418"/>
      <point x="260" y="377"/>
    </contour>
    <contour>
      <point x="291" y="372" type="line"/>
      <point x="208" y="348" type="line"/>
      <point x="377" y="-10" type="line"/>
      <point x="499" y="42" type="line"/>
      <point x="500" y="47" type="line"/>
    </contour>
  </outline>
</glyph>
<glyph name="S" format="1">
  <advance width="506"/>
  <unicode hex="0053"/>
  <outline>
    <contour>
      <point x="274" y="650" type="curve"/>
      <point x="339" y="650"/>
      <point x="402" y="599"/>
      <point x="424" y="450" type="curve"/>
      <point x="480" y="457" type="line"/>
      <point x="472" y="555"/>
      <point x="476" y="632"/>
      <point x="486" y="682" type="curve"/>
      <point x="455" y="690" type="line"/>
      <point x="444" y="665"/>
      <point x="437" y="645"/>
      <point x="431" y="617" type="curve"/>
      <point x="397" y="670"/>
      <point x="336" y="710"/>
      <point x="271" y="710" type="curve"/>
      <point x="151" y="710"/>
      <point x="54" y="620"/>
      <point x="54" y="510" type="curve"/>
      <point x="54" y="410"/>
      <point x="108" y="353"/>
      <point x="210" y="314" type="curve"/>
      <point x="296" y="281"/>
      <point x="355" y="248"/>
      <point x="355" y="170" type="curve"/>
      <point x="355" y="96"/>
      <point x="306" y="60"/>
      <point x="257" y="60" type="curve"/>
      <point x="162" y="60"/>
      <point x="101" y="145"/>
      <point x="96" y="253" type="curve"/>
      <point x="36" y="244" type="line"/>
      <point x="50" y="182"/>
      <point x="55" y="103"/>
      <point x="35" y="-5" type="curve"/>
      <point x="63" y="-18" type="line"/>
      <point x="112" y="58" type="line"/>
      <point x="144" y="30"/>
      <point x="199" y="-10"/>
      <point x="267" y="-10" type="curve"/>
      <point x="377" y="-10"/>
      <point x="470" y="92"/>
      <point x="470" y="202" type="curve"/>
      <point x="470" y="322"/>
      <point x="385" y="367"/>
      <point x="296" y="409" type="curve"/>
      <point x="226" y="442"/>
      <point x="159" y="480"/>
      <point x="159" y="550" type="curve"/>
      <point x="159" y="615"/>
      <point x="210" y="650"/>
    </contour>
  </outline>
</glyph>
<glyph name="T" format="1">
  <advance width="604"/>
  <unicode hex="0054"/>
  <outline>
    <contour>
      <point x="274" y="609" type="curve"/>
      <point x="324" y="609"/>
      <point x="494" y="611"/>
      <point x="561" y="607" type="curve"/>
      <point x="594" y="700" type="line"/>
      <point x="588" y="710" type="line"/>
      <point x="494" y="700"/>
      <point x="405" y="697"/>
      <point x="302" y="697" type="curve"/>
      <point x="225" y="697"/>
      <point x="150" y="698"/>
      <point x="55" y="700" type="curve"/>
      <point x="10" y="610" type="line"/>
      <point x="22" y="597" type="line"/>
      <point x="109" y="611"/>
      <point x="232" y="609"/>
    </contour>
    <contour>
      <point x="225" y="0" type="line"/>
      <point x="371" y="0" type="line"/>
      <point x="372" y="3" type="line"/>
      <point x="344" y="104"/>
      <point x="343" y="590"/>
      <point x="367" y="687" type="curve"/>
      <point x="366" y="690" type="line"/>
      <point x="227" y="690" type="line"/>
      <point x="226" y="687" type="line"/>
      <point x="251" y="590"/>
      <point x="242" y="104"/>
      <point x="224" y="3" type="curve"/>
    </contour>
  </outline>
</glyph>
<glyph name="U" format="1">
  <advance width="688"/>
  <unicode hex="0055"/>
  <outline>
    <contour>
      <point x="643" y="10" type="curve"/>
      <point x="640" y="0" type="line"/>
      <point x="487" y="0" type="line"/>
      <point x="506" y="233"/>
      <point x="505" y="462"/>
      <point x="492" y="700" type="curve"/>
      <point x="635" y="700" type="line"/>
      <point x="638" y="690" type="line"/>
      <point x="586" y="530"/>
      <point x="603" y="161"/>
    </contour>
    <contour>
      <point x="502" y="251" type="curve"/>
      <point x="502" y="114" type="line"/>
      <point x="468" y="63"/>
      <point x="369" y="-11"/>
      <point x="276" y="-11" type="curve"/>
      <point x="145" y="-11"/>
      <point x="59" y="57"/>
      <point x="59" y="232" type="curve"/>
      <point x="59" y="370"/>
      <point x="52" y="593"/>
      <point x="45" y="700" type="curve"/>
      <point x="181" y="700" type="line"/>
      <point x="184" y="690" type="line"/>
      <point x="171" y="586"/>
      <point x="169" y="407"/>
      <point x="169" y="315" type="curve"/>
      <point x="169" y="165"/>
      <point x="236" y="90"/>
      <point x="336" y="90" type="curve"/>
      <point x="436" y="90"/>
      <point x="487" y="148"/>
    </contour>
  </outline>
</glyph>
<glyph name="V" format="1">
  <advance width="689"/>
  <unicode hex="0056"/>
  <outline>
    <contour>
      <point x="377" y="194" type="curve"/>
      <point x="516" y="545" type="line" smooth="yes"/>
      <point x="535" y="593"/>
      <point x="537" y="611"/>
      <point x="538" y="700" type="curve"/>
      <point x="679" y="700" type="line"/>
      <point x="679" y="695" type="line"/>
      <point x="649" y="652"/>
      <point x="593" y="554"/>
      <point x="513" y="362" type="curve"/>
      <point x="468" y="254"/>
      <point x="396" y="70"/>
      <point x="371" y="-10" type="curve"/>
      <point x="327" y="-10" type="line"/>
      <point x="232" y="225"/>
      <point x="123" y="463"/>
      <point x="10" y="680" type="curve"/>
      <point x="14" y="700" type="line"/>
      <point x="159" y="700" type="line"/>
      <point x="210" y="560"/>
      <point x="324" y="300"/>
    </contour>
  </outline>
</glyph>
<glyph name="W" format="1">
  <advance width="874"/>
  <unicode hex="0057"/>
  <outline>
    <contour>
      <point x="439" y="501" type="curve"/>
      <point x="355" y="346"/>
      <point x="273" y="165"/>
      <point x="194" y="-10" type="curve"/>
      <point x="151" y="0" type="line"/>
      <point x="137" y="205"/>
      <point x="93" y="495"/>
      <point x="20" y="690" type="curve"/>
      <point x="20" y="700" type="line"/>
      <point x="190" y="700" type="line"/>
      <point x="207" y="557"/>
      <point x="227" y="397"/>
      <point x="253" y="257" type="curve"/>
      <point x="454" y="710" type="line"/>
      <point x="492" y="700" type="line"/>
      <point x="534" y="558"/>
      <point x="623" y="391"/>
      <point x="702" y="251" type="curve"/>
      <point x="722" y="388"/>
      <point x="751" y="605"/>
      <point x="765" y="712" type="curve"/>
      <point x="854" y="700" type="line"/>
      <point x="808" y="530"/>
      <point x="758" y="242"/>
      <point x="746" y="-10" type="curve"/>
      <point x="711" y="-10" type="line"/>
      <point x="618" y="143"/>
      <point x="524" y="327"/>
    </contour>
  </outline>
</glyph>
<glyph name="X" format="1">
  <advance width="645"/>
  <unicode hex="0058"/>
  <outline>
    <contour>
      <point x="37" y="0" type="line"/>
      <point x="165" y="0" type="line"/>
      <point x="327" y="290" type="line"/>
      <point x="311" y="284" type="line"/>
      <point x="443" y="0" type="line"/>
      <point x="581" y="0" type="line"/>
      <point x="584" y="19" type="line"/>
      <point x="512" y="136"/>
      <point x="442" y="255"/>
      <point x="376" y="372" type="curve"/>
      <point x="374" y="356" type="line"/>
      <point x="457" y="473"/>
      <point x="528" y="576"/>
      <point x="622" y="679" type="curve"/>
      <point x="622" y="700" type="line"/>
      <point x="505" y="700" type="line"/>
      <point x="346" y="423" type="line"/>
      <point x="357" y="420" type="line"/>
      <point x="225" y="700" type="line"/>
      <point x="71" y="700" type="line"/>
      <point x="68" y="683" type="line"/>
      <point x="153" y="577"/>
      <point x="225" y="446"/>
      <point x="295" y="314" type="curve"/>
      <point x="297" y="328" type="line"/>
      <point x="37" y="13" type="line"/>
    </contour>
  </outline>
</glyph>
<glyph name="Y" format="1">
  <advance width="596"/>
  <unicode hex="0059"/>
  <outline>
    <contour>
      <point x="321" y="364" type="curve"/>
      <point x="409" y="527"/>
      <point x="456" y="644"/>
      <point x="473" y="700" type="curve"/>
      <point x="591" y="700" type="line"/>
      <point x="591" y="697" type="line"/>
      <point x="547" y="629"/>
      <point x="451" y="495"/>
      <point x="351" y="307" type="curve"/>
      <point x="244" y="307" type="line"/>
      <point x="206" y="386"/>
      <point x="72" y="600"/>
      <point x="5" y="696" type="curve"/>
      <point x="6" y="700" type="line"/>
      <point x="157" y="700" type="line"/>
      <point x="180" y="646"/>
      <point x="238" y="530"/>
    </contour>
    <contour>
      <point x="374" y="3" type="curve"/>
      <point x="373" y="0" type="line"/>
      <point x="227" y="0" type="line"/>
      <point x="226" y="3" type="line"/>
      <point x="234" y="50"/>
      <point x="241" y="182"/>
      <point x="243" y="320" type="curve"/>
      <point x="352" y="320" type="line"/>
      <point x="354" y="182"/>
      <point x="361" y="50"/>
    </contour>
  </outline>
</glyph>
<glyph name="Z" format="1">
  <advance width="601"/>
  <unicode hex="005A"/>
  <outline>
    <contour>
      <point x="414" y="590" type="line"/>
      <point x="421" y="590" type="line"/>
      <point x="293" y="595"/>
      <point x="82" y="587"/>
      <point x="22" y="566" type="curve"/>
      <point x="12" y="572" type="line"/>
      <point x="21" y="622"/>
      <point x="37" y="662"/>
      <point x="62" y="710" type="curve"/>
      <point x="255" y="689"/>
      <point x="492" y="692"/>
      <point x="577" y="710" type="curve"/>
      <point x="584" y="693" type="line"/>
      <point x="431" y="506"/>
      <point x="297" y="312"/>
      <point x="159" y="107" type="curve"/>
      <point x="265" y="106"/>
      <point x="493" y="119"/>
      <point x="568" y="138" type="curve"/>
      <point x="584" y="130" type="line"/>
      <point x="570" y="84"/>
      <point x="554" y="47"/>
      <point x="532" y="-6" type="curve"/>
      <point x="349" y="12"/>
      <point x="192" y="14"/>
      <point x="21" y="-10" type="curve"/>
      <point x="5" y="8" type="line"/>
    </contour>
  </outline>
</glyph>
<glyph name="a" format="1">
  <advance width="470"/>
  <unicode hex="0061"/>
  <outline>
    <contour>
      <point x="189" y="-10" type="curve"/>
      <point x="296" y="65" type="line"/>
      <point x="372" y="-10" type="line"/>
      <point x="455" y="48" type="line"/>
      <point x="455" y="51" type="line"/>
      <point x="412" y="101" type="line"/>
      <point x="410" y="209"/>
      <point x="413" y="322"/>
      <point x="419" y="430" type="curve"/>
      <point x="371" y="467"/>
      <point x="271" y="515"/>
      <point x="199" y="520" type="curve"/>
      <point x="43" y="430" type="line"/>
      <point x="49" y="342"/>
      <point x="49" y="167"/>
      <point x="40" y="50" type="curve"/>
      <point x="89" y="33"/>
      <point x="144" y="6"/>
    </contour>
    <contour>
      <point x="317" y="382" type="curve"/>
      <point x="317" y="101" type="line"/>
      <point x="301" y="90" type="line"/>
      <point x="203" y="91"/>
      <point x="143" y="96"/>
      <point x="143" y="110" type="curve"/>
      <point x="143" y="430" type="line"/>
      <point x="197" y="425"/>
      <point x="266" y="404"/>
    </contour>
  </outline>
</glyph>
<glyph name="b" format="1">
  <advance width="483"/>
  <unicode hex="0062"/>
  <outline>
    <contour>
      <point x="443" y="430" type="curve"/>
      <point x="396" y="465"/>
      <point x="305" y="509"/>
      <point x="233" y="520" type="curve"/>
      <point x="149" y="461" type="line"/>
      <point x="157" y="559"/>
      <point x="160" y="600"/>
      <point x="175" y="700" type="curve"/>
      <point x="167" y="707" type="line"/>
      <point x="30" y="657" type="line"/>
      <point x="39" y="569"/>
      <point x="46" y="247"/>
      <point x="44" y="50" type="curve"/>
      <point x="94" y="34"/>
      <point x="221" y="8"/>
      <point x="269" y="-10" type="curve"/>
      <point x="438" y="108" type="line"/>
      <point x="434" y="216"/>
      <point x="439" y="322"/>
    </contour>
    <contour>
      <point x="341" y="371" type="curve"/>
      <point x="341" y="90" type="line"/>
      <point x="193" y="94"/>
      <point x="145" y="94"/>
      <point x="144" y="108" type="curve"/>
      <point x="138" y="220"/>
      <point x="136" y="329"/>
      <point x="138" y="416" type="curve"/>
      <point x="158" y="430" type="line"/>
      <point x="218" y="426"/>
      <point x="296" y="398"/>
    </contour>
  </outline>
</glyph>
<glyph name="c" format="1">
  <advance width="307"/>
  <unicode hex="0063"/>
  <outline>
    <contour>
      <point x="38" y="430" type="curve"/>
      <point x="195" y="520" type="line"/>
      <point x="220" y="520"/>
      <point x="251" y="518"/>
      <point x="286" y="510" type="curve"/>
      <point x="286" y="413" type="line"/>
      <point x="280" y="407" type="line"/>
      <point x="222" y="423"/>
      <point x="186" y="430"/>
      <point x="128" y="430" type="curve"/>
      <point x="124" y="323"/>
      <point x="126" y="218"/>
      <point x="132" y="111" type="curve"/>
      <point x="287" y="90" type="line"/>
      <point x="287" y="80" type="line"/>
      <point x="218" y="-10" type="line"/>
      <point x="149" y="13"/>
      <point x="101" y="34"/>
      <point x="32" y="53" type="curve"/>
      <point x="28" y="173"/>
      <point x="31" y="298"/>
    </contour>
  </outline>
</glyph>
<glyph name="d" format="1">
  <advance width="495"/>
  <unicode hex="0064"/>
  <outline>
    <contour>
      <point x="315" y="-10" type="curve"/>
      <point x="373" y="37"/>
      <point x="415" y="84"/>
      <point x="455" y="129" type="curve"/>
      <point x="452" y="237"/>
      <point x="449" y="369"/>
      <point x="453" y="477" type="curve"/>
      <point x="334" y="550"/>
      <point x="230" y="628"/>
      <point x="133" y="710" type="curve"/>
      <point x="58" y="660" type="line"/>
      <point x="95" y="607"/>
      <point x="166" y="547"/>
      <point x="194" y="526" type="curve"/>
      <point x="57" y="430" type="line"/>
      <point x="65" y="342"/>
      <point x="66" y="207"/>
      <point x="57" y="90" type="curve"/>
      <point x="107" y="67"/>
      <point x="267" y="6"/>
    </contour>
    <contour>
      <point x="228" y="501" type="curve"/>
      <point x="357" y="410" type="line"/>
      <point x="357" y="90" type="line"/>
      <point x="219" y="113"/>
      <point x="159" y="141"/>
      <point x="159" y="159" type="curve"/>
      <point x="159" y="410" type="line" smooth="yes"/>
      <point x="159" y="442"/>
      <point x="207" y="483"/>
    </contour>
  </outline>
</glyph>
<glyph name="e" format="1">
  <advance width="381"/>
  <unicode hex="0065"/>
  <outline>
    <contour>
      <point x="40" y="430" type="curve"/>
      <point x="196" y="520" type="line"/>
      <point x="249" y="479"/>
      <point x="314" y="444"/>
      <point x="371" y="409" type="curve"/>
      <point x="371" y="391" type="line"/>
      <point x="157" y="178" type="line"/>
      <point x="157" y="127"/>
      <point x="171" y="105"/>
      <point x="333" y="90" type="curve"/>
      <point x="333" y="82" type="line"/>
      <point x="240" y="-11" type="line"/>
      <point x="183" y="11"/>
      <point x="109" y="30"/>
      <point x="51" y="50" type="curve"/>
      <point x="60" y="136"/>
      <point x="56" y="331"/>
    </contour>
    <contour>
      <point x="294" y="369" type="line"/>
      <point x="117" y="430" type="line"/>
      <point x="125" y="355"/>
      <point x="131" y="278"/>
      <point x="137" y="203" type="curve"/>
      <point x="294" y="363" type="line"/>
    </contour>
  </outline>
</glyph>
<glyph name="f" format="1">
  <advance width="276"/>
  <unicode hex="0066"/>
  <outline>
    <contour>
      <point x="256" y="67" type="line"/>
      <point x="146" y="-10" type="line"/>
      <point x="118" y="23"/>
      <point x="91" y="57"/>
      <point x="61" y="90" type="curve"/>
      <point x="67" y="153"/>
      <point x="72" y="292"/>
      <point x="67" y="350" type="curve"/>
      <point x="10" y="350" type="line"/>
      <point x="10" y="364" type="line"/>
      <point x="67" y="430" type="line"/>
      <point x="68" y="503"/>
      <point x="64" y="575"/>
      <point x="57" y="646" type="curve"/>
      <point x="168" y="710" type="line"/>
      <point x="203" y="693"/>
      <point x="232" y="672"/>
      <point x="253" y="649" type="curve"/>
      <point x="253" y="569" type="line"/>
      <point x="238" y="559" type="line"/>
      <point x="210" y="586"/>
      <point x="178" y="606"/>
      <point x="148" y="621" type="curve"/>
      <point x="154" y="557"/>
      <point x="154" y="494"/>
      <point x="154" y="430" type="curve"/>
      <point x="250" y="430" type="line"/>
      <point x="250" y="350" type="line"/>
      <point x="161" y="350" type="line"/>
      <point x="161" y="276"/>
      <point x="161" y="202"/>
      <point x="156" y="128" type="curve"/>
      <point x="256" y="90" type="line"/>
    </contour>
  </outline>
</glyph>
<glyph name="g" format="1">
  <advance width="444"/>
  <unicode hex="0067"/>
  <outline>
    <contour>
      <point x="143" y="430" type="curve"/>
      <point x="143" y="91" type="line"/>
      <point x="307" y="91" type="line"/>
      <point x="307" y="372" type="line"/>
      <point x="260" y="396"/>
      <point x="198" y="416"/>
    </contour>
    <contour>
      <point x="113" y="-110" type="curve"/>
      <point x="113" y="-100" type="line"/>
      <point x="183" y="-30" type="line"/>
      <point x="215" y="-67"/>
      <point x="261" y="-103"/>
      <point x="312" y="-122" type="curve"/>
      <point x="312" y="55" type="line"/>
      <point x="296" y="65" type="line"/>
      <point x="189" y="-10" type="line"/>
      <point x="45" y="49" type="line"/>
      <point x="56" y="147"/>
      <point x="53" y="293"/>
      <point x="40" y="388" type="curve"/>
      <point x="172" y="520" type="line"/>
      <point x="265" y="501"/>
      <point x="344" y="466"/>
      <point x="407" y="430" type="curve"/>
      <point x="397" y="313"/>
      <point x="403" y="-24"/>
      <point x="414" y="-122" type="curve"/>
      <point x="354" y="-157"/>
      <point x="308" y="-178"/>
      <point x="246" y="-200" type="curve"/>
      <point x="196" y="-175"/>
      <point x="163" y="-155"/>
    </contour>
  </outline>
</glyph>
<glyph name="h" format="1">
  <advance width="503"/>
  <unicode hex="0068"/>
  <outline>
    <contour>
      <point x="366" y="375" type="curve"/>
      <point x="369" y="101"/>
      <point x="365" y="-26"/>
      <point x="306" y="-170" type="curve"/>
      <point x="316" y="-177" type="line"/>
      <point x="378" y="-128"/>
      <point x="424" y="-77"/>
      <point x="463" y="-26" type="curve"/>
      <point x="451" y="93"/>
      <point x="458" y="339"/>
      <point x="462" y="430" type="curve"/>
      <point x="416" y="466"/>
      <point x="346" y="496"/>
      <point x="280" y="520" type="curve"/>
      <point x="170" y="457" type="line"/>
      <point x="178" y="720" type="line"/>
      <point x="158" y="730" type="line"/>
      <point x="43" y="653" type="line"/>
      <point x="63" y="472"/>
      <point x="63" y="241"/>
      <point x="52" y="60" type="curve"/>
      <point x="118" y="-10" type="line"/>
      <point x="228" y="67" type="line"/>
      <point x="228" y="90" type="line"/>
      <point x="201" y="97"/>
      <point x="162" y="115"/>
      <point x="162" y="141" type="curve"/>
      <point x="162" y="424" type="line"/>
      <point x="168" y="430" type="line"/>
      <point x="238" y="421"/>
      <point x="323" y="400"/>
    </contour>
  </outline>
</glyph>
<glyph name="i" format="1">
  <advance width="248"/>
  <unicode hex="0069"/>
  <outline>
    <contour>
      <point x="182" y="465" type="curve"/>
      <point x="102" y="520" type="line"/>
      <point x="92" y="520" type="line"/>
      <point x="15" y="443" type="line"/>
      <point x="15" y="430" type="line"/>
      <point x="54" y="417"/>
      <point x="64" y="394"/>
      <point x="65" y="373" type="curve"/>
      <point x="68" y="303"/>
      <point x="67" y="141"/>
      <point x="57" y="60" type="curve"/>
      <point x="123" y="-10" type="line"/>
      <point x="233" y="67" type="line"/>
      <point x="233" y="90" type="line"/>
      <point x="196" y="102"/>
      <point x="161" y="115"/>
      <point x="161" y="141" type="curve"/>
      <point x="161" y="266"/>
      <point x="170" y="414"/>
    </contour>
    <contour>
      <point x="219" y="670" type="line"/>
      <point x="94" y="557" type="line"/>
      <point x="29" y="574" type="line"/>
      <point x="29" y="584" type="line"/>
      <point x="157" y="700" type="line"/>
      <point x="219" y="680" type="line"/>
    </contour>
  </outline>
</glyph>
<glyph name="j" format="1">
  <advance width="239"/>
  <unicode hex="006A"/>
  <outline>
    <contour>
      <point x="39" y="579" type="line"/>
      <point x="149" y="700" type="line"/>
      <point x="219" y="677" type="line"/>
      <point x="217" y="667" type="line"/>
      <point x="81" y="551" type="line"/>
      <point x="39" y="571" type="line"/>
    </contour>
    <contour>
      <point x="182" y="465" type="curve"/>
      <point x="102" y="520" type="line"/>
      <point x="92" y="520" type="line"/>
      <point x="15" y="443" type="line"/>
      <point x="15" y="430" type="line"/>
      <point x="54" y="417"/>
      <point x="64" y="394"/>
      <point x="65" y="373" type="curve"/>
      <point x="76" y="158"/>
      <point x="94" y="38"/>
      <point x="35" y="-103" type="curve"/>
      <point x="59" y="-115" type="line"/>
      <point x="112" y="-67"/>
      <point x="150" y="-29"/>
      <point x="179" y="21" type="curve"/>
      <point x="173" y="56"/>
      <point x="171" y="115"/>
      <point x="171" y="181" type="curve"/>
      <point x="171" y="266"/>
      <point x="179" y="414"/>
    </contour>
  </outline>
</glyph>
<glyph name="k" format="1">
  <advance width="472"/>
  <unicode hex="006B"/>
  <outline>
    <contour>
      <point x="401" y="141" type="curve"/>
      <point x="401" y="174"/>
      <point x="404" y="248"/>
      <point x="414" y="298" type="curve"/>
      <point x="406" y="306" type="line"/>
      <point x="366" y="305"/>
      <point x="316" y="311"/>
      <point x="268" y="325" type="curve"/>
      <point x="339" y="352"/>
      <point x="394" y="390"/>
      <point x="419" y="420" type="curve"/>
      <point x="419" y="430" type="line"/>
      <point x="381" y="462"/>
      <point x="335" y="497"/>
      <point x="283" y="520" type="curve"/>
      <point x="159" y="487" type="line"/>
      <point x="163" y="585"/>
      <point x="167" y="618"/>
      <point x="185" y="718" type="curve"/>
      <point x="174" y="730" type="line"/>
      <point x="40" y="675" type="line"/>
      <point x="47" y="587"/>
      <point x="56" y="257"/>
      <point x="54" y="60" type="curve"/>
      <point x="139" y="-10" type="line"/>
      <point x="219" y="70" type="line"/>
      <point x="219" y="80" type="line"/>
      <point x="154" y="136" type="line"/>
      <point x="151" y="175"/>
      <point x="150" y="228"/>
      <point x="150" y="282" type="curve"/>
      <point x="200" y="280"/>
      <point x="309" y="271"/>
      <point x="309" y="232" type="curve"/>
      <point x="309" y="182"/>
      <point x="308" y="141"/>
      <point x="301" y="60" type="curve"/>
      <point x="397" y="-10" type="line"/>
      <point x="467" y="67" type="line"/>
      <point x="467" y="90" type="line"/>
      <point x="430" y="102"/>
      <point x="401" y="115"/>
    </contour>
    <contour>
      <point x="152" y="456" type="curve"/>
      <point x="188" y="462" type="line"/>
      <point x="218" y="458"/>
      <point x="287" y="413"/>
      <point x="311" y="384" type="curve"/>
      <point x="276" y="358"/>
      <point x="235" y="340"/>
      <point x="151" y="332" type="curve"/>
      <point x="151" y="381"/>
      <point x="152" y="420"/>
    </contour>
  </outline>
</glyph>
<glyph name="l" format="1">
  <advance width="222"/>
  <unicode hex="006C"/>
  <outline>
    <contour>
      <point x="143" y="723" type="curve"/>
      <point x="136" y="730" type="line"/>
      <point x="30" y="680" type="line"/>
      <point x="48" y="592"/>
      <point x="56" y="257"/>
      <point x="44" y="60" type="curve"/>
      <point x="127" y="-10" type="line"/>
      <point x="207" y="70" type="line"/>
      <point x="207" y="80" type="line"/>
      <point x="142" y="136" type="line"/>
      <point x="150" y="378"/>
      <point x="153" y="561"/>
    </contour>
  </outline>
</glyph>
<glyph name="m" format="1">
  <advance width="716"/>
  <unicode hex="006D"/>
  <outline>
    <contour>
      <point x="302" y="402" type="curve"/>
      <point x="303" y="314"/>
      <point x="303" y="156"/>
      <point x="296" y="60" type="curve"/>
      <point x="381" y="-10" type="line"/>
      <point x="461" y="67" type="line"/>
      <point x="461" y="90" type="line"/>
      <point x="429" y="98"/>
      <point x="403" y="113"/>
      <point x="401" y="139" type="curve"/>
      <point x="395" y="221"/>
      <point x="403" y="365"/>
      <point x="416" y="424" type="curve"/>
      <point x="427" y="430" type="line"/>
      <point x="449" y="444" type="line"/>
      <point x="406" y="473"/>
      <point x="336" y="507"/>
      <point x="295" y="520" type="curve"/>
      <point x="175" y="451" type="line"/>
      <point x="102" y="520" type="line"/>
      <point x="92" y="520" type="line"/>
      <point x="15" y="443" type="line"/>
      <point x="15" y="430" type="line"/>
      <point x="54" y="407"/>
      <point x="64" y="394"/>
      <point x="65" y="373" type="curve"/>
      <point x="69" y="303"/>
      <point x="67" y="141"/>
      <point x="57" y="60" type="curve"/>
      <point x="157" y="136" type="line"/>
      <point x="167" y="424" type="line"/>
      <point x="173" y="430" type="line"/>
      <point x="223" y="426"/>
      <point x="259" y="419"/>
    </contour>
    <contour>
      <point x="222" y="80" type="line"/>
      <point x="157" y="136" type="line"/>
      <point x="57" y="60" type="line"/>
      <point x="142" y="-10" type="line"/>
      <point x="222" y="70" type="line"/>
    </contour>
    <contour>
      <point x="515" y="520" type="curve"/>
      <point x="416" y="431" type="line"/>
      <point x="454" y="424"/>
      <point x="495" y="417"/>
      <point x="542" y="402" type="curve"/>
      <point x="543" y="314"/>
      <point x="543" y="156"/>
      <point x="536" y="60" type="curve"/>
      <point x="621" y="-10" type="line"/>
      <point x="701" y="70" type="line"/>
      <point x="701" y="80" type="line"/>
      <point x="634" y="126" type="line"/>
      <point x="630" y="225"/>
      <point x="646" y="425"/>
      <point x="651" y="465" type="curve"/>
      <point x="620" y="489"/>
      <point x="561" y="510"/>
    </contour>
  </outline>
</glyph>
<glyph name="n" format="1">
  <advance width="508"/>
  <unicode hex="006E"/>
  <outline>
    <contour>
      <point x="335" y="370" type="curve"/>
      <point x="336" y="282"/>
      <point x="336" y="156"/>
      <point x="329" y="60" type="curve"/>
      <point x="413" y="-10" type="line"/>
      <point x="493" y="70" type="line"/>
      <point x="493" y="80" type="line"/>
      <point x="428" y="136" type="line"/>
      <point x="429" y="175"/>
      <point x="434" y="339"/>
      <point x="439" y="430" type="curve"/>
      <point x="393" y="466"/>
      <point x="333" y="506"/>
      <point x="290" y="520" type="curve"/>
      <point x="173" y="453" type="line"/>
      <point x="97" y="520" type="line"/>
      <point x="87" y="520" type="line"/>
      <point x="15" y="443" type="line"/>
      <point x="15" y="430" type="line"/>
      <point x="54" y="407"/>
      <point x="64" y="394"/>
      <point x="65" y="373" type="curve"/>
      <point x="68" y="303"/>
      <point x="67" y="141"/>
      <point x="57" y="60" type="curve"/>
      <point x="118" y="-10" type="line"/>
      <point x="228" y="67" type="line"/>
      <point x="228" y="90" type="line"/>
      <point x="191" y="96"/>
      <point x="162" y="115"/>
      <point x="162" y="141" type="curve"/>
      <point x="162" y="424" type="line"/>
      <point x="168" y="430" type="line"/>
      <point x="238" y="416"/>
      <point x="292" y="396"/>
    </contour>
  </outline>
</glyph>
<glyph name="o" format="1">
  <advance width="440"/>
  <unicode hex="006F"/>
  <outline>
    <contour>
      <point x="265" y="-10" type="curve"/>
      <point x="395" y="65" type="line"/>
      <point x="393" y="173"/>
      <point x="401" y="322"/>
      <point x="410" y="430" type="curve"/>
      <point x="349" y="475"/>
      <point x="275" y="504"/>
      <point x="203" y="520" type="curve"/>
      <point x="30" y="420" type="line"/>
      <point x="37" y="332"/>
      <point x="38" y="177"/>
      <point x="30" y="60" type="curve"/>
      <point x="80" y="46"/>
      <point x="217" y="2"/>
    </contour>
    <contour>
      <point x="304" y="381" type="curve"/>
      <point x="304" y="90" type="line"/>
      <point x="156" y="105"/>
      <point x="131" y="112"/>
      <point x="131" y="124" type="curve"/>
      <point x="131" y="430" type="line"/>
      <point x="185" y="425"/>
      <point x="257" y="404"/>
    </contour>
  </outline>
</glyph>
<glyph name="p" format="1">
  <advance width="478"/>
  <unicode hex="0070"/>
  <outline>
    <contour>
      <point x="438" y="460" type="curve"/>
      <point x="387" y="485"/>
      <point x="309" y="504"/>
      <point x="237" y="520" type="curve"/>
      <point x="175" y="457" type="line"/>
      <point x="82" y="520" type="line"/>
      <point x="72" y="520" type="line"/>
      <point x="10" y="433" type="line"/>
      <point x="10" y="430" type="line"/>
      <point x="72" y="385" type="line"/>
      <point x="72" y="257"/>
      <point x="54" y="-61"/>
      <point x="44" y="-170" type="curve"/>
      <point x="89" y="-174"/>
      <point x="122" y="-174"/>
      <point x="157" y="-170" type="curve"/>
      <point x="147" y="23" type="line"/>
      <point x="218" y="8"/>
      <point x="307" y="-7"/>
      <point x="339" y="-10" type="curve"/>
      <point x="436" y="110" type="line"/>
      <point x="431" y="218"/>
      <point x="434" y="352"/>
    </contour>
    <contour>
      <point x="338" y="393" type="curve"/>
      <point x="338" y="90" type="line"/>
      <point x="165" y="114" type="line"/>
      <point x="165" y="430" type="line"/>
      <point x="219" y="425"/>
      <point x="291" y="410"/>
    </contour>
  </outline>
</glyph>
<glyph name="q" format="1">
  <advance width="419"/>
  <unicode hex="0071"/>
  <outline>
    <contour>
      <point x="179" y="-10" type="curve"/>
      <point x="286" y="65" type="line"/>
      <point x="271" y="-21"/>
      <point x="257" y="-102"/>
      <point x="234" y="-188" type="curve"/>
      <point x="249" y="-197" type="line"/>
      <point x="303" y="-181"/>
      <point x="339" y="-165"/>
      <point x="385" y="-139" type="curve"/>
      <point x="381" y="173"/>
      <point x="381" y="277"/>
      <point x="389" y="430" type="curve"/>
      <point x="189" y="520" type="line"/>
      <point x="33" y="430" type="line"/>
      <point x="39" y="342"/>
      <point x="39" y="167"/>
      <point x="30" y="50" type="curve"/>
      <point x="79" y="33"/>
      <point x="134" y="6"/>
    </contour>
    <contour>
      <point x="133" y="430" type="line"/>
      <point x="287" y="382" type="line"/>
      <point x="287" y="90" type="line"/>
      <point x="133" y="114" type="line"/>
    </contour>
  </outline>
</glyph>
<glyph name="r" format="1">
  <advance width="362"/>
  <unicode hex="0072"/>
  <outline>
    <contour>
      <point x="164" y="153" type="curve"/>
      <point x="157" y="381" type="line"/>
      <point x="157" y="412" type="line"/>
      <point x="209" y="440"/>
      <point x="242" y="395"/>
      <point x="268" y="308" type="curve"/>
      <point x="282" y="308" type="line"/>
      <point x="342" y="410" type="line"/>
      <point x="323" y="457"/>
      <point x="303" y="501"/>
      <point x="270" y="520" type="curve"/>
      <point x="180" y="457" type="line"/>
      <point x="97" y="520" type="line"/>
      <point x="87" y="520" type="line"/>
      <point x="15" y="443" type="line"/>
      <point x="15" y="430" type="line"/>
      <point x="54" y="407"/>
      <point x="64" y="394"/>
      <point x="65" y="373" type="curve"/>
      <point x="65" y="192" type="line" smooth="yes"/>
      <point x="65" y="119"/>
      <point x="58" y="92"/>
      <point x="49" y="72" type="curve"/>
      <point x="49" y="62" type="line"/>
      <point x="111" y="37"/>
      <point x="182" y="15"/>
      <point x="251" y="-10" type="curve"/>
      <point x="310" y="85" type="line"/>
      <point x="307" y="95" type="line"/>
      <point x="272" y="90"/>
      <point x="240" y="86"/>
      <point x="215" y="86" type="curve"/>
      <point x="174" y="86"/>
      <point x="166" y="100"/>
    </contour>
  </outline>
</glyph>
<glyph name="s" format="1">
  <advance width="449"/>
  <unicode hex="0073"/>
  <outline>
    <contour>
      <point x="341" y="321" type="curve"/>
      <point x="429" y="407" type="line"/>
      <point x="390" y="476"/>
      <point x="296" y="514"/>
      <point x="246" y="520" type="curve"/>
      <point x="151" y="493"/>
      <point x="60" y="424"/>
      <point x="39" y="365" type="curve"/>
      <point x="39" y="323"/>
      <point x="59" y="248"/>
      <point x="116" y="182" type="curve"/>
      <point x="20" y="123" type="line"/>
      <point x="52" y="48"/>
      <point x="100" y="-10"/>
      <point x="204" y="-10" type="curve"/>
      <point x="314" y="10"/>
      <point x="400" y="75"/>
      <point x="426" y="148" type="curve"/>
      <point x="426" y="198"/>
      <point x="392" y="277"/>
    </contour>
    <contour>
      <point x="125" y="366" type="curve"/>
      <point x="125" y="409"/>
      <point x="151" y="440"/>
      <point x="198" y="440" type="curve"/>
      <point x="248" y="440"/>
      <point x="294" y="412"/>
      <point x="332" y="364" type="curve"/>
      <point x="194" y="244" type="line"/>
      <point x="158" y="278"/>
      <point x="125" y="332"/>
    </contour>
    <contour>
      <point x="259" y="53" type="curve"/>
      <point x="208" y="53"/>
      <point x="147" y="87"/>
      <point x="125" y="145" type="curve"/>
      <point x="271" y="260" type="line"/>
      <point x="303" y="239"/>
      <point x="334" y="172"/>
      <point x="334" y="127" type="curve"/>
      <point x="334" y="87"/>
      <point x="309" y="53"/>
    </contour>
  </outline>
</glyph>
<glyph name="t" format="1">
  <advance width="286"/>
  <unicode hex="0074"/>
  <outline>
    <contour>
      <point x="158" y="465" type="curve"/>
      <point x="158" y="543"/>
      <point x="162" y="602"/>
      <point x="171" y="670" type="curve"/>
      <point x="141" y="677" type="line"/>
      <point x="111" y="601"/>
      <point x="68" y="511"/>
      <point x="15" y="443" type="curve"/>
      <point x="15" y="430" type="line"/>
      <point x="54" y="417"/>
      <point x="64" y="394"/>
      <point x="65" y="373" type="curve"/>
      <point x="68" y="303"/>
      <point x="67" y="141"/>
      <point x="57" y="60" type="curve"/>
      <point x="79" y="34"/>
      <point x="111" y="10"/>
      <point x="153" y="-10" type="curve"/>
      <point x="241" y="52" type="line"/>
      <point x="241" y="58" type="line"/>
      <point x="196" y="77"/>
      <point x="157" y="111"/>
      <point x="157" y="127" type="curve"/>
      <point x="157" y="242"/>
      <point x="156" y="414"/>
    </contour>
    <contour>
      <point x="271" y="487" type="line"/>
      <point x="128" y="487" type="line"/>
      <point x="128" y="402" type="line"/>
      <point x="271" y="402" type="line"/>
    </contour>
  </outline>
</glyph>
<glyph name="u" format="1">
  <advance width="511"/>
  <unicode hex="0075"/>
  <outline>
    <contour>
      <point x="445" y="465" type="curve"/>
      <point x="365" y="520" type="line"/>
      <point x="355" y="520" type="line"/>
      <point x="278" y="443" type="line"/>
      <point x="278" y="430" type="line"/>
      <point x="317" y="417"/>
      <point x="327" y="394"/>
      <point x="328" y="373" type="curve"/>
      <point x="331" y="303"/>
      <point x="332" y="128"/>
      <point x="312" y="69" type="curve"/>
      <point x="386" y="-10" type="line"/>
      <point x="496" y="67" type="line"/>
      <point x="496" y="90" type="line"/>
      <point x="459" y="102"/>
      <point x="424" y="115"/>
      <point x="424" y="141" type="curve"/>
      <point x="424" y="266"/>
      <point x="433" y="414"/>
    </contour>
    <contour>
      <point x="62" y="430" type="move"/>
      <point x="156" y="430" type="line"/>
    </contour>
    <contour>
      <point x="156" y="430" type="line"/>
      <point x="62" y="430" type="line"/>
      <point x="70" y="342"/>
      <point x="62" y="167"/>
      <point x="53" y="50" type="curve"/>
      <point x="102" y="33"/>
      <point x="152" y="6"/>
      <point x="197" y="-10" type="curve"/>
      <point x="322" y="74" type="line"/>
      <point x="325" y="101" type="line"/>
      <point x="309" y="90" type="line"/>
      <point x="211" y="91"/>
      <point x="156" y="96"/>
      <point x="156" y="110" type="curve"/>
    </contour>
    <contour>
      <point x="65" y="370" type="curve"/>
      <point x="156" y="401" type="line"/>
      <point x="157" y="416"/>
      <point x="167" y="432"/>
      <point x="175" y="447" type="curve"/>
      <point x="92" y="520" type="line"/>
      <point x="82" y="520" type="line"/>
      <point x="10" y="443" type="line"/>
      <point x="10" y="430" type="line"/>
      <point x="45" y="409"/>
      <point x="64" y="391"/>
    </contour>
  </outline>
</glyph>
<glyph name="v" format="1">
  <advance width="506"/>
  <unicode hex="0076"/>
  <outline>
    <contour>
      <point x="466" y="460" type="curve"/>
      <point x="398" y="486"/>
      <point x="328" y="505"/>
      <point x="256" y="520" type="curve"/>
      <point x="157" y="451" type="line"/>
      <point x="65" y="357" type="line"/>
      <point x="67" y="251"/>
      <point x="68" y="138"/>
      <point x="67" y="50" type="curve"/>
      <point x="117" y="34"/>
      <point x="244" y="8"/>
      <point x="292" y="-10" type="curve"/>
      <point x="461" y="108" type="line"/>
      <point x="457" y="216"/>
      <point x="462" y="352"/>
    </contour>
    <contour>
      <point x="364" y="394" type="curve"/>
      <point x="364" y="90" type="line"/>
      <point x="216" y="94"/>
      <point x="168" y="94"/>
      <point x="167" y="108" type="curve"/>
      <point x="159" y="220"/>
      <point x="159" y="339"/>
      <point x="161" y="426" type="curve"/>
      <point x="164" y="430" type="line"/>
      <point x="229" y="420"/>
      <point x="299" y="409"/>
    </contour>
    <contour>
      <point x="65" y="357" type="curve"/>
      <point x="165" y="447" type="line"/>
      <point x="102" y="520" type="line"/>
      <point x="92" y="520" type="line"/>
      <point x="15" y="443" type="line"/>
      <point x="15" y="430" type="line"/>
      <point x="54" y="407"/>
      <point x="64" y="394"/>
    </contour>
  </outline>
</glyph>
<glyph name="w" format="1">
  <advance width="706"/>
  <unicode hex="0077"/>
  <outline>
    <contour>
      <point x="419" y="430" type="curve"/>
      <point x="372" y="465"/>
      <point x="288" y="509"/>
      <point x="256" y="520" type="curve"/>
      <point x="157" y="451" type="line"/>
      <point x="69" y="357" type="line"/>
      <point x="71" y="251"/>
      <point x="68" y="148"/>
      <point x="57" y="50" type="curve"/>
      <point x="117" y="34"/>
      <point x="214" y="8"/>
      <point x="262" y="-10" type="curve"/>
      <point x="345" y="63" type="line"/>
      <point x="421" y="90" type="line"/>
      <point x="419" y="198"/>
      <point x="415" y="322"/>
    </contour>
    <contour>
      <point x="324" y="381" type="curve"/>
      <point x="324" y="90" type="line"/>
      <point x="176" y="94"/>
      <point x="168" y="94"/>
      <point x="167" y="108" type="curve"/>
      <point x="159" y="220"/>
      <point x="159" y="331"/>
      <point x="161" y="418" type="curve"/>
      <point x="163" y="420" type="line"/>
      <point x="221" y="413"/>
      <point x="276" y="402"/>
    </contour>
    <contour>
      <point x="69" y="357" type="curve"/>
      <point x="165" y="447" type="line"/>
      <point x="102" y="530" type="line"/>
      <point x="97" y="530" type="line"/>
      <point x="15" y="474" type="line"/>
      <point x="15" y="470" type="line"/>
      <point x="64" y="407"/>
      <point x="68" y="394"/>
    </contour>
    <contour>
      <point x="490" y="544" type="curve"/>
      <point x="392" y="447" type="line"/>
      <point x="401" y="416" type="line"/>
      <point x="421" y="415" type="line"/>
      <point x="471" y="409"/>
      <point x="533" y="394"/>
      <point x="574" y="373" type="curve"/>
      <point x="574" y="70" type="line"/>
      <point x="411" y="92" type="line"/>
      <point x="319" y="65" type="line"/>
      <point x="369" y="49"/>
      <point x="494" y="8"/>
      <point x="542" y="-10" type="curve"/>
      <point x="671" y="119" type="line"/>
      <point x="669" y="227"/>
      <point x="672" y="342"/>
      <point x="676" y="450" type="curve"/>
      <point x="629" y="471"/>
      <point x="522" y="525"/>
    </contour>
  </outline>
</glyph>
<glyph name="x" format="1">
  <advance width="490"/>
  <unicode hex="0078"/>
  <outline>
    <contour>
      <point x="10" y="430" type="curve"/>
      <point x="10" y="437" type="line"/>
      <point x="111" y="491" type="line"/>
      <point x="234" y="345"/>
      <point x="353" y="200"/>
      <point x="485" y="60" type="curve"/>
      <point x="485" y="47" type="line"/>
      <point x="381" y="-10" type="line"/>
      <point x="259" y="147"/>
      <point x="140" y="290"/>
    </contour>
    <contour>
      <point x="283" y="268" type="line"/>
      <point x="252" y="317" type="line"/>
      <point x="383" y="520" type="line"/>
      <point x="460" y="491" type="line"/>
    </contour>
    <contour>
      <point x="190" y="239" type="line"/>
      <point x="234" y="211" type="line"/>
      <point x="67" y="-10" type="line"/>
      <point x="0" y="27" type="line"/>
    </contour>
  </outline>
</glyph>
<glyph name="y" format="1">
  <advance width="553"/>
  <unicode hex="0079"/>
  <outline>
    <contour>
      <point x="148" y="-209" type="line"/>
      <point x="144" y="-197" type="line"/>
      <point x="270" y="95" type="line"/>
      <point x="182" y="233"/>
      <point x="84" y="376"/>
      <point x="-14" y="506" type="curve"/>
      <point x="-13" y="510" type="line"/>
      <point x="128" y="510" type="line"/>
      <point x="194" y="414"/>
      <point x="259" y="306"/>
      <point x="316" y="204" type="curve"/>
      <point x="367" y="302"/>
      <point x="421" y="430"/>
      <point x="458" y="520" type="curve"/>
      <point x="488" y="516"/>
      <point x="517" y="511"/>
      <point x="547" y="500" type="curve"/>
      <point x="547" y="497" type="line"/>
      <point x="390" y="251"/>
      <point x="305" y="26"/>
      <point x="244" y="-209" type="curve"/>
    </contour>
  </outline>
</glyph>
<glyph name="z" format="1">
  <advance width="407"/>
  <unicode hex="007A"/>
  <outline>
    <contour>
      <point x="399" y="118" type="curve"/>
      <point x="402" y="0" type="line"/>
      <point x="393" y="-10" type="line"/>
      <point x="212" y="14"/>
      <point x="119" y="13"/>
      <point x="15" y="-5" type="curve"/>
      <point x="5" y="15" type="line"/>
      <point x="91" y="108"/>
      <point x="201" y="294"/>
      <point x="265" y="411" type="curve"/>
      <point x="184" y="404"/>
      <point x="92" y="405"/>
      <point x="18" y="411" type="curve"/>
      <point x="18" y="515" type="line"/>
      <point x="181" y="503"/>
      <point x="291" y="505"/>
      <point x="388" y="520" type="curve"/>
      <point x="392" y="510" type="line"/>
      <point x="322" y="380"/>
      <point x="191" y="172"/>
      <point x="146" y="97" type="curve"/>
      <point x="212" y="105"/>
      <point x="321" y="111"/>
    </contour>
  </outline>
</glyph>
<glyph name="dieresis" format="1">
  <advance width="600"/>
  <unicode hex="00A8"/>
  <outline>
    <contour>
      <point x="134" y="565" type="line"/>
      <point x="179" y="750" type="line"/>
      <point x="267" y="750" type="line"/>
      <point x="177" y="565" type="line"/>
    </contour>
    <contour>
      <point x="259" y="565" type="line"/>
      <point x="304" y="750" type="line"/>
      <point x="392" y="750" type="line"/>
      <point x="304" y="565" type="line"/>
    </contour>
  </outline>
</glyph>
<glyph name="guillemetleft" format="1">
  <advance width="236"/>
  <unicode hex="00AB"/>
  <outline>
    <contour>
      <point x="47" y="-46" type="line"/>
      <point x="160" y="105" type="line"/>
      <point x="142" y="118" type="line"/>
      <point x="20" y="-27" type="line"/>
    </contour>
    <contour>
      <point x="71" y="-59" type="line"/>
      <point x="197" y="108" type="line"/>
      <point x="216" y="102" type="line"/>
      <point x="105" y="-82" type="line"/>
    </contour>
  </outline>
</glyph>
<glyph name="guillemetright" format="1">
  <advance width="328"/>
  <unicode hex="00BB"/>
  <outline>
    <contour>
      <point x="175" y="760" type="line"/>
      <point x="220" y="737" type="line"/>
      <point x="52" y="503" type="line"/>
      <point x="20" y="525" type="line"/>
    </contour>
    <contour>
      <point x="308" y="733" type="line"/>
      <point x="135" y="463" type="line"/>
      <point x="105" y="487" type="line"/>
      <point x="264" y="760" type="line"/>
    </contour>
  </outline>
</glyph>
<glyph name="Adieresis" format="1">
  <advance width="809"/>
  <unicode hex="00C4"/>
  <outline>
    <contour>
      <point x="170" y="172" type="line"/>
      <point x="590" y="172" type="line"/>
      <point x="617" y="101" type="line"/>
      <point x="145" y="101" type="line"/>
    </contour>
    <contour>
      <point x="792" y="0" type="line"/>
      <point x="635" y="0" type="line"/>
      <point x="581" y="133" type="line"/>
      <point x="591" y="156" type="line"/>
      <point x="399" y="582" type="line"/>
      <point x="390" y="582" type="line"/>
      <point x="320" y="454"/>
      <point x="243" y="302"/>
      <point x="181" y="163" type="curve"/>
      <point x="197" y="148" type="line"/>
      <point x="132" y="0" type="line"/>
      <point x="18" y="0" type="line"/>
      <point x="15" y="9" type="line"/>
      <point x="142" y="255"/>
      <point x="364" y="677"/>
      <point x="391" y="750" type="curve"/>
      <point x="447" y="750" type="line"/>
      <point x="559" y="500"/>
      <point x="696" y="204"/>
      <point x="794" y="9" type="curve"/>
    </contour>
    <contour>
      <point x="323" y="738" type="curve"/>
      <point x="321" y="745" type="line"/>
      <point x="186" y="725" type="line"/>
      <point x="156" y="507" type="line"/>
      <point x="168" y="501" type="line"/>
      <point x="217" y="580"/>
      <point x="268" y="659"/>
    </contour>
    <contour>
      <point x="521" y="736" type="line"/>
      <point x="658" y="515" type="line"/>
      <point x="671" y="523" type="line"/>
      <point x="663" y="594"/>
      <point x="654" y="663"/>
      <point x="641" y="736" type="curve"/>
      <point x="527" y="745" type="line"/>
    </contour>
  </outline>
</glyph>
<glyph name="Udieresis" format="1">
  <advance width="688"/>
  <unicode hex="00DC"/>
  <outline>
    <contour>
      <point x="256" y="411" type="line"/>
      <point x="236" y="700" type="line"/>
      <point x="307" y="710" type="line"/>
      <point x="298" y="611"/>
      <point x="291" y="520"/>
      <point x="286" y="421" type="curve"/>
    </contour>
    <contour>
      <point x="381" y="399" type="line"/>
      <point x="356" y="700" type="line"/>
      <point x="435" y="710" type="line"/>
      <point x="425" y="607"/>
      <point x="418" y="512"/>
      <point x="411" y="409" type="curve"/>
    </contour>
    <component base="U"/>
  </outline>
</glyph>
<glyph name="germandbls" format="1">
  <advance width="443"/>
  <unicode hex="00DF"/>
  <outline>
    <contour>
      <point x="210" y="47" type="line"/>
      <point x="210" y="27" type="line"/>
      <point x="125" y="-10" type="line"/>
      <point x="34" y="53" type="line"/>
      <point x="47" y="185"/>
      <point x="43" y="486"/>
      <point x="30" y="616" type="curve"/>
      <point x="127" y="710" type="line"/>
      <point x="160" y="697"/>
      <point x="269" y="676"/>
      <point x="302" y="669" type="curve"/>
      <point x="263" y="596" type="line"/>
      <point x="255" y="593" type="line"/>
      <point x="127" y="621" type="line"/>
      <point x="133" y="557"/>
      <point x="140" y="164"/>
      <point x="135" y="90" type="curve"/>
    </contour>
    <contour>
      <point x="116" y="227" type="curve"/>
      <point x="110" y="256" type="line"/>
      <point x="305" y="362" type="line"/>
      <point x="402" y="300" type="line"/>
      <point x="398" y="239"/>
      <point x="391" y="93"/>
      <point x="403" y="-26" type="curve"/>
      <point x="364" y="-77"/>
      <point x="318" y="-128"/>
      <point x="266" y="-167" type="curve"/>
      <point x="256" y="-160" type="line"/>
      <point x="302" y="-26"/>
      <point x="304" y="1"/>
      <point x="304" y="225" type="curve"/>
      <point x="304" y="258"/>
      <point x="285" y="282"/>
      <point x="261" y="282" type="curve"/>
      <point x="230" y="282"/>
      <point x="134" y="238"/>
    </contour>
    <contour>
      <point x="119" y="366" type="curve"/>
      <point x="106" y="392" type="line"/>
      <point x="322" y="521" type="line"/>
      <point x="350" y="503"/>
      <point x="362" y="486"/>
      <point x="384" y="457" type="curve"/>
      <point x="358" y="419"/>
      <point x="331" y="379"/>
      <point x="313" y="349" type="curve"/>
      <point x="307" y="349" type="line"/>
      <point x="292" y="389"/>
      <point x="269" y="429"/>
      <point x="247" y="429" type="curve"/>
      <point x="227" y="429"/>
      <point x="158" y="390"/>
    </contour>
  </outline>
</glyph>
<glyph name="longs" format="1">
  <advance width="242"/>
  <unicode hex="017F"/>
  <outline>
    <contour>
      <point x="210" y="47" type="line"/>
      <point x="210" y="27" type="line"/>
      <point x="125" y="-10" type="line"/>
      <point x="34" y="53" type="line"/>
      <point x="47" y="185"/>
      <point x="43" y="486"/>
      <point x="30" y="616" type="curve"/>
      <point x="127" y="710" type="line"/>
      <point x="160" y="697"/>
      <point x="219" y="666"/>
      <point x="242" y="649" type="curve"/>
      <point x="205" y="562" type="line"/>
      <point x="197" y="559" type="line"/>
      <point x="127" y="621" type="line"/>
      <point x="133" y="557"/>
      <point x="140" y="164"/>
      <point x="135" y="90" type="curve"/>
    </contour>
  </outline>
</glyph>
<glyph name="emdash" format="1">
  <advance width="569"/>
  <unicode hex="2014"/>
  <outline>
    <contour>
      <point x="549" y="311" type="line"/>
      <point x="538" y="238" type="line"/>
      <point x="22" y="240" type="line"/>
      <point x="20" y="294" type="line"/>
    </contour>
  </outline>
</glyph>
<glyph name="c_h" format="1">
  <advance width="706"/>
  <outline>
    <contour>
      <point x="569" y="375" type="curve"/>
      <point x="572" y="171"/>
      <point x="568" y="44"/>
      <point x="509" y="-100" type="curve"/>
      <point x="519" y="-107" type="line"/>
      <point x="581" y="-58"/>
      <point x="627" y="-7"/>
      <point x="666" y="44" type="curve"/>
      <point x="654" y="163"/>
      <point x="661" y="339"/>
      <point x="665" y="430" type="curve"/>
      <point x="619" y="466"/>
      <point x="569" y="496"/>
      <point x="513" y="520" type="curve"/>
      <point x="403" y="457" type="line"/>
      <point x="411" y="720" type="line"/>
      <point x="391" y="730" type="line"/>
      <point x="276" y="653" type="line"/>
      <point x="296" y="472"/>
      <point x="296" y="241"/>
      <point x="285" y="60" type="curve"/>
      <point x="351" y="-10" type="line"/>
      <point x="461" y="67" type="line"/>
      <point x="461" y="90" type="line"/>
      <point x="434" y="97"/>
      <point x="395" y="115"/>
      <point x="395" y="141" type="curve"/>
      <point x="395" y="424" type="line"/>
      <point x="401" y="430" type="line"/>
      <point x="471" y="421"/>
      <point x="526" y="400"/>
    </contour>
    <contour>
      <point x="155" y="490" type="curve"/>
      <point x="38" y="400" type="line"/>
      <point x="31" y="268"/>
      <point x="28" y="173"/>
      <point x="32" y="53" type="curve"/>
      <point x="76" y="29"/>
      <point x="87" y="22"/>
      <point x="138" y="-10" type="curve"/>
      <point x="300" y="66" type="line"/>
      <point x="300" y="90" type="line"/>
      <point x="132" y="101" type="line"/>
      <point x="126" y="208"/>
      <point x="124" y="298"/>
      <point x="128" y="405" type="curve"/>
      <point x="186" y="405"/>
      <point x="265" y="383"/>
      <point x="323" y="367" type="curve"/>
      <point x="329" y="373" type="line"/>
      <point x="329" y="450" type="line"/>
      <point x="294" y="458"/>
      <point x="180" y="490"/>
    </contour>
  </outline>
</glyph>
<glyph name="c_k" format="1">
  <advance width="708"/>
  <outline>
    <contour>
      <point x="152" y="520" type="curve"/>
      <point x="38" y="430" type="line"/>
      <point x="31" y="298"/>
      <point x="28" y="173"/>
      <point x="32" y="53" type="curve"/>
      <point x="101" y="34"/>
      <point x="143" y="13"/>
      <point x="212" y="-10" type="curve"/>
      <point x="299" y="68" type="line"/>
      <point x="299" y="90" type="line"/>
      <point x="132" y="111" type="line"/>
      <point x="126" y="218"/>
      <point x="124" y="323"/>
      <point x="128" y="430" type="curve"/>
      <point x="146" y="430"/>
      <point x="232" y="400"/>
      <point x="290" y="377" type="curve"/>
      <point x="296" y="383" type="line"/>
      <point x="286" y="460" type="line"/>
      <point x="252" y="479"/>
      <point x="177" y="510"/>
    </contour>
    <component base="k" xOffset="236"/>
  </outline>
</glyph>
<glyph name="mark" format="1">
  <advance width="600"/>
  <outline>
    <contour>
      <point x="317" y="-225" type="curve"/>
      <point x="431" y="-225"/>
      <point x="533" y="-130"/>
      <point x="533" y="-10" type="curve"/>
      <point x="533" y="111"/>
      <point x="437" y="208"/>
      <point x="317" y="208" type="curve"/>
      <point x="196" y="208"/>
      <point x="94" y="111"/>
      <point x="94" y="-10" type="curve"/>
      <point x="94" y="-127"/>
      <point x="182" y="-225"/>
    </contour>
    <contour>
      <point x="318" y="-188" type="curve"/>
      <point x="215" y="-188"/>
      <point x="134" y="-115"/>
      <point x="134" y="-9" type="curve"/>
      <point x="134" y="91"/>
      <point x="209" y="174"/>
      <point x="318" y="174" type="curve"/>
      <point x="417" y="174"/>
      <point x="493" y="91"/>
      <point x="493" y="-9" type="curve"/>
      <point x="493" y="-114"/>
      <point x="418" y="-188"/>
    </contour>
    <contour>
      <point x="338" y="735" type="curve"/>
      <point x="291" y="735" type="line"/>
      <point x="293" y="560"/>
      <point x="296" y="375"/>
      <point x="295" y="196" type="curve"/>
      <point x="331" y="194" type="line"/>
      <point x="333" y="374"/>
      <point x="325" y="561"/>
    </contour>
    <contour>
      <point x="115" y="451" type="curve"/>
      <point x="115" y="413" type="line"/>
      <point x="249" y="416"/>
      <point x="385" y="415"/>
      <point x="519" y="413" type="curve"/>
      <point x="519" y="459" type="line"/>
      <point x="445" y="453"/>
      <point x="249" y="447"/>
    </contour>
    <contour>
      <point x="115" y="562" type="curve"/>
      <point x="115" y="522" type="line"/>
      <point x="249" y="526"/>
      <point x="385" y="528"/>
      <point x="519" y="525" type="curve"/>
      <point x="519" y="570" type="line"/>
      <point x="425" y="563"/>
      <point x="249" y="556"/>
    </contour>
  </outline>
</glyph>
